
        <svg xmlns="http://www.w3.org/2000/svg" xmlns:xlink="http://www.w3.org/1999/xlink" version="1.1" width="3183.4862385321103" 
        height="908.256880733945" viewBox="0 0 3183.4862385321103 908.256880733945">
			
			<g transform="scale(9.174311926605505) translate(10, 10)">
				<defs id="SvgjsDefs2606"></defs><g id="SvgjsG2607" featureKey="rootContainer" transform="matrix(1,0,0,1,0,0)" fill="#ffffff"><rect y="0" height="1" width="1" opacity="0"></rect><rect y="74" width="327" height="5"></rect></g><g id="SvgjsG2608" featureKey="symbolFeature-0" transform="matrix(1.4943712532977822,0,0,1.4943712532977822,-29.718559814602138,-34.589915152657575)" fill="#f18a47"><path xmlns="http://www.w3.org/2000/svg" fill="#f18a47" d="M48.756,45.898H30.343v8.209h18.413V45.898z M61.701,56.598v8.211h18.412v-8.211H61.701z M51.246,54.107  h18.412v-8.209H51.246V54.107z M59.203,35.192H40.797V43.4h18.406V35.192z M40.797,64.809h18.406v-8.211H40.797V64.809z   M19.887,64.809H38.3v-8.211H19.887V64.809z"></path></g><g id="SvgjsG2609" featureKey="nameLeftFeature-0" transform="matrix(1.153846125630938,0,0,1.153846125630938,108.15384617148067,11.846154974762477)" fill="#ffffff"><path d="M1.6 40 l0 -31.2 l15.52 0 c3.24 0 5.76 0.8 7.52 2.4 c1.72 1.6 2.6 3.72 2.6 6.4 c0 3.04 -1.28 5.28 -3.8 6.68 c2.52 1.44 3.8 3.88 3.8 6.92 c0 2.68 -0.88 4.8 -2.6 6.4 c-1.76 1.64 -4.28 2.4 -7.52 2.4 l-15.52 0 z M9.6 21.32 l6.6 0 c1.96 0 2.96 -0.88 2.96 -2.56 c0 -0.76 -0.2 -1.4 -0.64 -1.88 c-0.44 -0.44 -1.04 -0.64 -1.88 -0.64 l-7.04 0 l0 5.08 z M9.6 32.56 l7.04 0 c0.84 0 1.44 -0.2 1.88 -0.64 c0.44 -0.48 0.64 -1.08 0.64 -1.88 c0 -1.68 -1 -2.56 -2.96 -2.56 l-6.6 0 l0 5.08 z M30.44 40 l0 -31.2 l13.76 0 c3.92 0 6.96 1 9.08 3 c2.12 2.04 3.16 4.56 3.16 7.48 c0 3.08 -1.04 5.64 -3.16 7.64 c-0.68 0.64 -1.44 1.16 -2.28 1.6 l6.24 11.48 l-7.56 0 l-5.48 -10.04 l-5.76 0 l0 10.04 l-8 0 z M38.44 23.56 l5.32 0 c3.08 0 4.6 -1.4 4.6 -4.24 c0 -1.2 -0.36 -2.16 -1.12 -2.96 s-1.92 -1.16 -3.48 -1.16 l-5.32 0 l0 8.36 z M60.44 40 l0 -31.2 l8 0 l0 31.2 l-8 0 z"></path></g><g id="SvgjsG2610" featureKey="nameRightFeature-0" transform="matrix(1.1111107971443468,0,0,1.1111107971443468,188.2222226980781,12.888903331360051)" fill="#fe904d"><path d="M1.6 40 l0 -31.2 l8 0 l0 10.76 l9.68 -10.76 l10.32 0 l-12.32 13.4 l12.96 17.8 l-9.92 0 l-8.6 -11.76 l-2.12 2.36 l0 9.4 l-8 0 z M50 40.6 c-4.52 0 -8.4 -1.6 -11.64 -4.76 c-3.28 -3.16 -4.92 -7 -4.92 -11.44 s1.64 -8.28 4.92 -11.44 c3.24 -3.16 7.12 -4.76 11.64 -4.76 c4.56 0 8.48 1.6 11.72 4.76 s4.84 7 4.84 11.44 s-1.6 8.28 -4.84 11.44 s-7.16 4.76 -11.72 4.76 z M50 32.88 c2.4 0 4.4 -0.84 6.04 -2.48 s2.44 -3.64 2.44 -6 s-0.8 -4.4 -2.44 -6.04 s-3.64 -2.44 -6.04 -2.44 c-2.36 0 -4.36 0.84 -6 2.48 s-2.48 3.64 -2.48 6 s0.84 4.36 2.48 6 s3.64 2.48 6 2.48 z M69.76 40 l0 -31.2 l13.76 0 c3.92 0 6.96 1 9.08 3 c2.12 2.04 3.16 4.56 3.16 7.48 c0 3.08 -1.04 5.64 -3.16 7.64 s-5.12 3.04 -9.08 3.04 l-5.76 0 l0 10.04 l-8 0 z M77.76 23.56 l5.32 0 c3.08 0 4.6 -1.4 4.6 -4.24 c0 -1.2 -0.36 -2.16 -1.12 -2.96 s-1.92 -1.16 -3.48 -1.16 l-5.32 0 l0 8.36 z M112.24 40.6 c-3.88 0 -7.04 -0.84 -9.52 -2.56 s-3.72 -4.04 -3.72 -7.04 l0 -0.36 l-0.04 -1.6 l7.84 0 l0 1.8 c0 0.68 0.48 1.32 1.4 1.92 s2.2 0.92 3.88 0.92 c1.4 0 2.4 -0.2 3.04 -0.56 c0.6 -0.36 0.92 -0.84 0.92 -1.36 c0 -0.64 -0.4 -1.2 -1.16 -1.68 c-0.8 -0.48 -2.2 -1.04 -4.16 -1.72 c-1.24 -0.44 -2.28 -0.8 -3.12 -1.12 s-1.84 -0.8 -3 -1.44 c-1.16 -0.6 -2.12 -1.28 -2.8 -1.96 s-1.28 -1.52 -1.8 -2.56 s-0.76 -2.16 -0.76 -3.4 c0 -2.92 1.12 -5.28 3.4 -7.04 s5.2 -2.64 8.8 -2.64 c3.72 0 6.76 0.92 9.16 2.76 s3.6 4.28 3.6 7.32 l0 1.96 l-7.8 0 l0 -1.8 c0 -0.84 -0.4 -1.64 -1.24 -2.32 s-2.04 -1 -3.56 -1 c-1.24 0 -2.2 0.2 -2.84 0.6 c-0.64 0.44 -0.96 0.92 -0.96 1.52 s0.36 1.08 1.08 1.48 c0.72 0.44 2.08 1 4.08 1.68 l2.04 0.72 l2.16 0.88 c0.92 0.44 1.68 0.8 2.24 1.16 s1.2 0.84 1.96 1.44 s1.32 1.24 1.76 1.84 c0.4 0.6 0.76 1.36 1.08 2.2 c0.28 0.84 0.44 1.76 0.44 2.68 c0 2.96 -1.16 5.24 -3.44 6.84 c-2.28 1.64 -5.28 2.44 -8.96 2.44 z"></path></g>
			</g>
		</svg>
	